<svg xmlns="http://www.w3.org/2000/svg" width="1990.999" height="1200.998" viewBox="0 0 1990.999 1200.998">
  <g id="Group_13" data-name="Group 13" transform="translate(-375 -629.001)">
    <g id="bg" fill="#fff" stroke-linejoin="round">
      <path d="M 543.0000610351562 1685.1455078125 L 543.0000610351562 1084.853637695312 L 843.1459350585938 1384.999145507812 L 543.0000610351562 1685.1455078125 Z" stroke="none"/>
      <path d="M 603.0000610351562 1229.706420898438 L 603.0000610351562 1540.29248046875 L 758.2930908203125 1384.999145507812 L 603.0000610351562 1229.706420898438 M 483.0000610351562 940.0008544921875 L 927.9987182617188 1384.9990234375 L 483.0000610351562 1829.99853515625 L 483.0000610351562 940.0008544921875 Z" stroke="none" fill="#707070"/>
    </g>
    <g id="bg-2" data-name="bg" fill="#fff" stroke-linejoin="round" opacity="0.039">
      <path d="M 1921 1434.145385742188 L 1560.85400390625 1073.999389648438 L 1921 713.8538208007812 L 2281.14599609375 1073.999389648438 L 1921 1434.145385742188 Z" stroke="none"/>
      <path d="M 1921 798.7064208984375 L 1645.706787109375 1073.999389648438 L 1921 1349.29248046875 L 2196.293212890625 1073.999389648438 L 1921 798.7064208984375 M 1921 629.0008544921875 L 2365.9990234375 1073.999267578125 L 1921 1518.997924804688 L 1476.001220703125 1073.999267578125 L 1921 629.0008544921875 Z" stroke="none" fill="#707070"/>
    </g>
    <path id="bg-3" data-name="bg" d="M975,1510v-23h23" fill="#006de8"/>
    <path id="bg-4" data-name="bg" d="M1613,1775v-23h23" fill="#006de8"/>
    <rect id="bg-5" data-name="bg" width="530" height="730" transform="translate(375 1020)" fill="#e6e6e6"/>
  </g>
</svg>
